<?xml version="1.0" standalone="no"?>
<!DOCTYPE svg PUBLIC "-//W3C//DTD SVG 20010904//EN"
 "http://www.w3.org/TR/2001/REC-SVG-20010904/DTD/svg10.dtd">
<svg version="1.0" xmlns="http://www.w3.org/2000/svg"
 width="260.000000pt" height="260.000000pt" viewBox="0 0 260.000000 260.000000"
 preserveAspectRatio="xMidYMid meet">
<metadata>
Created by potrace 1.11, written by Peter Selinger 2001-2013
</metadata>
<g transform="translate(0.000000,260.000000) scale(0.100000,-0.100000)"
fill="#000000" stroke="none">
<path d="M1294 2266 c-98 -19 -136 -32 -224 -77 -86 -44 -175 -115 -225 -178
l-34 -43 -3 143 -3 144 -223 3 -222 2 0 -524 0 -524 63 -62 c79 -79 178 -150
289 -206 48 -24 90 -44 93 -44 3 0 5 51 5 114 l0 115 78 -77 c168 -166 343
-229 612 -219 160 5 221 20 350 84 78 39 111 63 181 133 106 106 166 215 194
358 l7 32 -224 0 -224 0 -12 -34 c-64 -177 -290 -256 -472 -164 -117 59 -175
166 -175 318 1 72 5 95 29 148 38 81 116 155 188 177 67 20 182 19 242 -1 63
-22 148 -101 182 -170 l26 -54 219 0 c170 0 219 3 219 13 0 26 -41 160 -62
201 -90 179 -273 324 -475 377 -101 27 -300 34 -399 15z"/>
<path d="M372 1053 c63 -230 278 -462 546 -589 344 -164 793 -188 1149 -63 48
17 105 40 126 50 l37 19 0 287 0 287 -67 -68 c-203 -204 -475 -296 -838 -283
-349 11 -683 138 -902 341 l-62 57 11 -38z"/>
</g>
</svg>
