<svg role="img" xmlns="http://www.w3.org/2000/svg" xmlns:xlink="http://www.w3.org/1999/xlink" viewBox="0 0 430.67 78.74" aria-labelledby="cards-accepted"><title id="cards-accepted">Visa, MasterCard, Discover</title><defs><radialGradient id="a" cx="1266.2" cy="894.03" r="6.18" gradientTransform="translate(6.42 486.08)" gradientUnits="userSpaceOnUse"><stop offset="0.01" stop-color="#f3f3f3"/><stop offset="0.17" stop-color="#eaeaea"/><stop offset="0.43" stop-color="#d2d2d2"/><stop offset="0.75" stop-color="#aaa"/><stop offset="1" stop-color="#888"/></radialGradient></defs><rect y="0.35" width="125.43" height="78.39" rx="4.18" style="fill:#4f4f4f"/><polygon points="57.72 51.32 51.59 51.32 55.42 27.78 61.55 27.78 57.72 51.32" style="fill:#fff"/><path d="M949.58,1368.7l-5.84,16.18-.69-3.48h0L941,1370.82a2.63,2.63,0,0,0-2.91-2.12h-9.66l-.11.4a22.81,22.81,0,0,1,6.41,2.69l5.32,20.44h6.39l9.75-23.53Z" transform="translate(-903.14 -1340.91)" style="fill:#fff"/><path d="M997.78,1392.23h5.62l-4.9-23.53h-4.93a2.82,2.82,0,0,0-2.83,1.75l-9.14,21.78H988l1.28-3.49h7.79Zm-6.75-8.32,3.22-8.81,1.82,8.81Z" transform="translate(-903.14 -1340.91)" style="fill:#fff"/><path d="M982.08,1374.36l.88-5.06a17.79,17.79,0,0,0-5.51-1c-3.05,0-10.27,1.33-10.27,7.79,0,6.08,8.48,6.15,8.48,9.35s-7.6,2.62-10.11.6l-.91,5.29a17.11,17.11,0,0,0,6.91,1.33c4.18,0,10.49-2.17,10.49-8.06,0-6.12-8.55-6.69-8.55-9.35S979.46,1372.91,982.08,1374.36Z" transform="translate(-903.14 -1340.91)" style="fill:#fff"/><path d="M943.05,1381.4,941,1370.82a2.63,2.63,0,0,0-2.91-2.12h-9.66l-.11.4a23.73,23.73,0,0,1,9.09,4.56A18.39,18.39,0,0,1,943.05,1381.4Z" transform="translate(-903.14 -1340.91)" style="fill:#a9a9a9"/><rect x="152.3" y="0.35" width="125.43" height="78.39" rx="4.18" style="fill:#4f4f4f"/><polygon points="230.07 62.05 231.23 62.02 232.38 61.93 233.5 61.79 234.62 61.59 235.71 61.34 236.78 61.04 237.82 60.68 238.85 60.28 239.85 59.82 240.82 59.33 241.76 58.78 242.68 58.2 243.56 57.57 244.41 56.9 245.23 56.19 246.01 55.44 246.76 54.66 247.47 53.84 248.14 52.99 248.77 52.11 249.35 51.19 249.9 50.25 250.39 49.28 250.85 48.28 251.25 47.25 251.61 46.2 251.91 45.13 252.16 44.05 252.36 42.93 252.5 41.81 252.59 40.66 252.62 39.5 252.59 38.35 252.5 37.21 252.36 36.09 252.16 34.98 251.91 33.9 251.61 32.84 251.25 31.79 250.85 30.77 250.39 29.78 249.9 28.8 249.35 27.87 248.77 26.95 248.14 26.07 247.47 25.23 246.76 24.41 246.01 23.63 245.23 22.89 244.41 22.18 243.56 21.51 242.68 20.88 241.76 20.3 240.82 19.76 239.85 19.27 238.85 18.81 237.82 18.41 236.78 18.05 235.71 17.75 234.62 17.5 233.5 17.3 232.38 17.15 231.23 17.07 230.07 17.04 228.92 17.07 227.77 17.15 226.65 17.3 225.54 17.5 224.45 17.75 223.38 18.05 222.34 18.41 221.32 18.81 220.32 19.27 219.36 19.76 218.42 20.3 217.51 20.88 216.63 21.51 215.78 22.18 214.97 22.89 214.18 23.63 213.44 24.41 212.73 25.23 212.07 26.07 211.44 26.95 210.86 27.87 210.32 28.8 209.82 29.78 209.37 30.77 208.97 31.79 208.62 32.84 208.32 33.9 208.06 34.98 207.87 36.09 207.72 37.21 207.64 38.35 207.61 39.5 207.64 40.66 207.72 41.81 207.87 42.93 208.06 44.05 208.32 45.13 208.62 46.2 208.97 47.25 209.37 48.28 209.82 49.28 210.32 50.25 210.86 51.19 211.44 52.11 212.07 52.99 212.73 53.84 213.44 54.66 214.18 55.44 214.97 56.19 215.78 56.9 216.63 57.57 217.51 58.2 218.42 58.78 219.36 59.33 220.32 59.82 221.32 60.28 222.34 60.68 223.38 61.04 224.45 61.34 225.54 61.59 226.65 61.79 227.77 61.93 228.92 62.02 230.07 62.05 230.07 62.05 230.07 62.05" style="fill:#b3b3b3;fill-rule:evenodd"/><polygon points="199.97 62.05 201.12 62.02 202.27 61.93 203.39 61.79 204.5 61.59 205.58 61.34 206.65 61.04 207.69 60.68 208.72 60.28 209.71 59.82 210.68 59.33 211.62 58.78 212.53 58.2 213.41 57.57 214.26 56.9 215.07 56.19 215.85 55.44 216.6 54.66 217.31 53.84 217.97 52.99 218.59 52.11 219.18 51.19 219.72 50.25 220.22 49.28 220.67 48.28 221.07 47.25 221.42 46.2 221.72 45.13 221.97 44.05 222.17 42.93 222.31 41.81 222.4 40.66 222.43 39.5 222.4 38.35 222.31 37.21 222.17 36.09 221.97 34.98 221.72 33.9 221.42 32.84 221.07 31.79 220.67 30.77 220.22 29.78 219.72 28.8 219.18 27.87 218.59 26.95 217.97 26.07 217.31 25.23 216.6 24.41 215.85 23.63 215.07 22.89 214.26 22.18 213.41 21.51 212.53 20.88 211.62 20.3 210.68 19.76 209.71 19.27 208.72 18.81 207.69 18.41 206.65 18.05 205.58 17.75 204.5 17.5 203.39 17.3 202.27 17.15 201.12 17.07 199.97 17.04 198.81 17.07 197.66 17.15 196.53 17.3 195.42 17.5 194.33 17.75 193.26 18.05 192.22 18.41 191.19 18.81 190.19 19.27 189.22 19.76 188.28 20.3 187.36 20.88 186.48 21.51 185.63 22.18 184.81 22.89 184.03 23.63 183.27 24.41 182.57 25.23 181.9 26.07 181.27 26.95 180.69 27.87 180.14 28.8 179.65 29.78 179.19 30.77 178.79 31.79 178.43 32.84 178.13 33.9 177.88 34.98 177.68 36.09 177.53 37.21 177.45 38.35 177.42 39.5 177.45 40.66 177.53 41.81 177.68 42.93 177.88 44.05 178.13 45.13 178.43 46.2 178.79 47.25 179.19 48.28 179.65 49.28 180.14 50.25 180.69 51.19 181.27 52.11 181.9 52.99 182.57 53.84 183.27 54.66 184.03 55.44 184.81 56.19 185.63 56.9 186.48 57.57 187.36 58.2 188.28 58.78 189.22 59.33 190.19 59.82 191.19 60.28 192.22 60.68 193.26 61.04 194.33 61.34 195.42 61.59 196.53 61.79 197.66 61.93 198.81 62.02 199.97 62.05 199.97 62.05 199.97 62.05" style="fill:#333;fill-rule:evenodd"/><polygon points="212.38 25.67 224.34 25.67 224.34 24.45 213.42 24.45 212.38 25.67 212.38 25.67 212.38 25.67" style="fill:#b3b3b3;fill-rule:evenodd"/><polygon points="210.59 28.39 224.34 28.39 224.34 27.16 211.31 27.16 210.59 28.39 210.59 28.39 210.59 28.39" style="fill:#b3b3b3;fill-rule:evenodd"/><polygon points="209.26 31.1 224.34 31.1 224.34 29.88 209.79 29.88 209.26 31.1 209.26 31.1 209.26 31.1" style="fill:#b3b3b3;fill-rule:evenodd"/><polygon points="208.34 33.81 224.34 33.81 224.34 32.59 208.72 32.59 208.34 33.81 208.34 33.81 208.34 33.81" style="fill:#b3b3b3;fill-rule:evenodd"/><polygon points="208.87 46.95 224.38 46.95 224.38 45.73 208.49 45.73 208.87 46.95 208.87 46.95 208.87 46.95" style="fill:#b3b3b3;fill-rule:evenodd"/><polygon points="210.02 49.66 224.38 49.66 224.38 48.44 209.45 48.44 210.02 49.66 210.02 49.66 210.02 49.66" style="fill:#b3b3b3;fill-rule:evenodd"/><polygon points="211.63 52.38 224.38 52.38 224.38 51.15 210.86 51.15 211.63 52.38 211.63 52.38 211.63 52.38" style="fill:#b3b3b3;fill-rule:evenodd"/><polygon points="213.84 55.09 224.38 55.09 224.38 53.86 212.77 53.86 213.84 55.09 213.84 55.09 213.84 55.09" style="fill:#b3b3b3;fill-rule:evenodd"/><polygon points="207.8 36.52 224.34 36.52 224.34 35.3 208.03 35.3 207.8 36.52 207.8 36.52 207.8 36.52" style="fill:#b3b3b3;fill-rule:evenodd"/><polygon points="217.88 44.24 224.19 44.24 224.19 43.02 218.11 43.02 217.88 44.24 217.88 44.24 217.88 44.24" style="fill:#b3b3b3;fill-rule:evenodd"/><polygon points="218.38 41.53 224.19 41.53 224.19 40.3 218.61 40.3 218.38 41.53 218.38 41.53 218.38 41.53" style="fill:#b3b3b3;fill-rule:evenodd"/><polygon points="207.38 40.3 209.02 40.3 209.02 41.53 207.46 41.53 207.38 40.3 207.38 40.3 207.38 40.3" style="fill:#b3b3b3;fill-rule:evenodd"/><polygon points="204.32 38.82 204.22 38.81 204.11 38.8 204.01 38.78 203.91 38.77 203.82 38.75 203.72 38.73 203.63 38.72 203.52 38.7 203.41 38.69 203.29 38.68 203.15 38.67 203.01 38.67 202.85 38.67 202.68 38.67 202.48 38.69 202.26 38.7 202.11 38.73 201.96 38.75 201.83 38.8 201.72 38.84 201.61 38.89 201.52 38.95 201.44 39.03 201.37 39.1 201.32 39.18 201.28 39.27 201.27 39.36 201.27 39.45 201.29 39.55 201.32 39.65 201.38 39.74 201.46 39.84 201.61 39.99 201.8 40.1 202.01 40.2 202.24 40.28 202.48 40.36 202.73 40.44 202.98 40.53 203.22 40.63 203.45 40.76 203.66 40.92 203.85 41.11 204.01 41.35 204.13 41.63 204.21 41.98 204.24 42.39 204.21 42.86 204.16 43.22 204.06 43.53 203.94 43.82 203.79 44.07 203.62 44.29 203.42 44.48 203.21 44.65 202.97 44.79 202.73 44.91 202.48 45 202.22 45.08 201.96 45.14 201.7 45.19 201.44 45.21 201.19 45.23 200.96 45.23 200.63 45.23 200.33 45.23 200.06 45.23 199.81 45.22 199.59 45.21 199.38 45.19 199.2 45.18 199.03 45.16 198.87 45.14 198.72 45.11 198.58 45.09 198.45 45.05 198.32 45.02 198.2 44.97 198.08 44.93 197.95 44.88 198.29 43.21 198.36 43.22 198.44 43.24 198.55 43.27 198.68 43.3 198.81 43.34 198.96 43.37 199.13 43.4 199.31 43.43 199.5 43.46 199.7 43.49 199.91 43.52 200.12 43.54 200.34 43.55 200.56 43.55 200.78 43.55 201 43.55 201.22 43.5 201.4 43.44 201.53 43.36 201.64 43.25 201.71 43.15 201.77 43.02 201.81 42.9 201.84 42.79 201.86 42.57 201.79 42.38 201.66 42.23 201.47 42.1 201.24 41.98 200.97 41.87 200.68 41.76 200.38 41.64 200.08 41.51 199.79 41.35 199.53 41.15 199.28 40.91 199.09 40.62 198.96 40.28 198.89 39.87 198.9 39.39 198.93 39.09 198.99 38.81 199.06 38.55 199.15 38.31 199.28 38.08 199.41 37.88 199.57 37.69 199.76 37.53 199.98 37.38 200.22 37.26 200.5 37.15 200.8 37.06 201.14 37 201.52 36.94 201.92 36.91 202.37 36.9 202.65 36.9 202.91 36.91 203.15 36.92 203.36 36.93 203.55 36.94 203.72 36.96 203.88 36.97 204.01 36.99 204.14 37 204.25 37.03 204.35 37.04 204.44 37.06 204.51 37.07 204.58 37.08 204.65 37.09 204.71 37.1 204.32 38.82 204.32 38.82 204.32 38.82" style="fill:#fff;fill-rule:evenodd"/><polyline points="204.32 38.82 204.32 38.82 204.22 38.81 204.11 38.8 204.01 38.78 203.91 38.77 203.82 38.75 203.72 38.73 203.63 38.72 203.52 38.7 203.41 38.69 203.29 38.68 203.15 38.67 203.01 38.67 202.85 38.67 202.68 38.67 202.48 38.69 202.26 38.7 202.26 38.7 202.11 38.73 201.96 38.75 201.83 38.8 201.72 38.84 201.61 38.89 201.52 38.95 201.44 39.03 201.37 39.1 201.32 39.18 201.28 39.27 201.27 39.36 201.27 39.45 201.29 39.55 201.32 39.65 201.38 39.74 201.46 39.84 201.46 39.84 201.61 39.99 201.8 40.1 202.01 40.2 202.24 40.28 202.48 40.36 202.73 40.44 202.98 40.53 203.22 40.63 203.45 40.76 203.66 40.92 203.85 41.11 204.01 41.35 204.13 41.63 204.21 41.98 204.24 42.39 204.21 42.86 204.21 42.86 204.16 43.22 204.06 43.53 203.94 43.82 203.79 44.07 203.62 44.29 203.42 44.48 203.21 44.65 202.97 44.79 202.73 44.91 202.48 45 202.22 45.08 201.96 45.14 201.7 45.19 201.44 45.21 201.19 45.23 200.96 45.23 200.96 45.23 200.63 45.23 200.33 45.23 200.06 45.23 199.81 45.22 199.59 45.21 199.38 45.19 199.2 45.18 199.03 45.16 198.87 45.14 198.72 45.11 198.58 45.09 198.45 45.05 198.32 45.02 198.2 44.97 198.08 44.93 197.95 44.88 198.29 43.21 198.29 43.21 198.36 43.22 198.44 43.24 198.55 43.27 198.68 43.3 198.81 43.34 198.96 43.37 199.13 43.4 199.31 43.43 199.5 43.46 199.7 43.49 199.91 43.52 200.12 43.54 200.34 43.55 200.56 43.55 200.78 43.55 201 43.55 201 43.55 201.22 43.5 201.4 43.44 201.53 43.36 201.64 43.25 201.71 43.15 201.77 43.02 201.81 42.9 201.84 42.79 201.84 42.79 201.86 42.57 201.79 42.38 201.66 42.23 201.47 42.1 201.24 41.98 200.97 41.87 200.68 41.76 200.38 41.64 200.08 41.51 199.79 41.35 199.53 41.15 199.28 40.91 199.09 40.62 198.96 40.28 198.89 39.87 198.9 39.39 198.9 39.39 198.93 39.09 198.99 38.81 199.06 38.55 199.15 38.31 199.28 38.08 199.41 37.88 199.57 37.69 199.76 37.53 199.98 37.38 200.22 37.26 200.5 37.15 200.8 37.06 201.14 37 201.52 36.94 201.92 36.91 202.37 36.9 202.37 36.9 202.65 36.9 202.91 36.91 203.15 36.92 203.36 36.93 203.55 36.94 203.72 36.96 203.88 36.97 204.01 36.99 204.14 37 204.25 37.03 204.35 37.04 204.44 37.06 204.51 37.07 204.58 37.08 204.65 37.09 204.71 37.1 204.32 38.82" style="fill:none;stroke:#fff;stroke-miterlimit:2.6131;stroke-width:0.216px"/><polygon points="206.12 35.23 208.22 35.23 207.91 37.06 209.18 37.06 208.91 38.78 207.57 38.74 206.84 42.98 206.84 43.13 206.87 43.26 206.95 43.36 207.05 43.44 207.19 43.49 207.34 43.54 207.5 43.57 207.69 43.59 207.85 43.58 208.01 43.56 208.14 43.54 208.26 43.51 208.36 43.48 208.43 43.46 208.47 43.44 208.49 43.43 208.22 44.84 208.17 44.88 208.12 44.91 208.06 44.94 208.01 44.97 207.96 45 207.9 45.02 207.83 45.04 207.76 45.06 207.69 45.09 207.61 45.1 207.52 45.12 207.43 45.13 207.33 45.15 207.22 45.16 207.09 45.18 206.97 45.19 206.39 45.19 206.08 45.17 205.82 45.14 205.58 45.1 205.37 45.04 205.19 44.97 205.05 44.9 204.92 44.81 204.82 44.71 204.75 44.6 204.69 44.47 204.66 44.34 204.63 44.2 204.63 44.04 204.63 43.87 204.65 43.7 204.67 43.51 206.12 35.23 206.12 35.23 206.12 35.23" style="fill:#fff;fill-rule:evenodd"/><polyline points="206.12 35.23 208.22 35.23 207.91 37.06 209.18 37.06 208.91 38.78 207.57 38.74 206.84 42.98 206.84 42.98 206.84 43.13 206.87 43.26 206.95 43.36 207.05 43.44 207.19 43.49 207.34 43.54 207.5 43.57 207.69 43.59 207.69 43.59 207.85 43.58 208.01 43.56 208.14 43.54 208.26 43.51 208.36 43.48 208.43 43.46 208.47 43.44 208.49 43.43 208.22 44.84 208.22 44.84 208.17 44.88 208.12 44.91 208.06 44.94 208.01 44.97 207.96 45 207.9 45.02 207.83 45.04 207.76 45.06 207.69 45.09 207.61 45.1 207.52 45.12 207.43 45.13 207.33 45.15 207.22 45.16 207.09 45.18 206.97 45.19 206.39 45.19 206.39 45.19 206.08 45.17 205.82 45.14 205.58 45.1 205.37 45.04 205.19 44.97 205.05 44.9 204.92 44.81 204.82 44.71 204.75 44.6 204.69 44.47 204.66 44.34 204.63 44.2 204.63 44.04 204.63 43.87 204.65 43.7 204.67 43.51 206.12 35.23" style="fill:none;stroke:#fff;stroke-miterlimit:2.6131;stroke-width:0.216px"/><polyline points="210.86 41.64 210.86 41.64 210.84 41.77 210.83 41.91 210.84 42.05 210.87 42.2 210.93 42.34 210.99 42.48 211.07 42.62 211.16 42.75 211.27 42.88 211.38 42.99 211.5 43.11 211.64 43.2 211.78 43.28 211.93 43.35 212.08 43.4 212.23 43.43 212.23 43.43 212.43 43.46 212.62 43.49 212.82 43.51 213.02 43.52 213.21 43.53 213.42 43.53 213.62 43.52 213.82 43.51 214.02 43.48 214.23 43.44 214.44 43.4 214.65 43.33 214.86 43.24 215.08 43.15 215.29 43.03 215.51 42.9 215.21 44.77 215.21 44.77 215.09 44.83 214.97 44.89 214.84 44.94 214.73 44.98 214.62 45.02 214.49 45.06 214.37 45.09 214.24 45.11 214.11 45.13 213.96 45.15 213.8 45.16 213.62 45.18 213.42 45.19 213.22 45.19 212.98 45.19 212.73 45.19 212.73 45.19 212.36 45.19 211.98 45.15 211.6 45.1 211.22 45 210.85 44.89 210.49 44.75 210.15 44.56 209.83 44.34 209.54 44.08 209.28 43.77 209.06 43.42 208.88 43.02 208.75 42.57 208.66 42.06 208.64 41.5 208.68 40.88 208.68 40.88 208.71 40.63 208.76 40.35 208.82 40.06 208.9 39.73 209.02 39.41 209.15 39.08 209.33 38.75 209.54 38.43 209.78 38.13 210.08 37.84 210.41 37.58 210.79 37.35 211.23 37.16 211.72 37.03 212.27 36.94 212.89 36.9 212.89 36.9 213.18 36.91 213.49 36.94 213.8 37 214.12 37.07 214.42 37.19 214.72 37.32 214.99 37.51 215.24 37.72 215.47 37.98 215.66 38.28 215.81 38.63 215.91 39.03 215.97 39.48 215.98 40 215.93 40.58 215.82 41.22 215.78 41.68 210.24 41.68 210.59 40.18 213.92 40.18 213.92 40.18 213.93 39.99 213.93 39.81 213.91 39.65 213.88 39.49 213.83 39.35 213.77 39.22 213.7 39.11 213.62 39 213.53 38.91 213.43 38.83 213.32 38.77 213.2 38.7 213.08 38.66 212.96 38.63 212.83 38.61 212.7 38.59 212.7 38.59 212.55 38.6 212.42 38.62 212.29 38.65 212.16 38.7 212.03 38.76 211.91 38.83 211.8 38.91 211.7 39 211.6 39.11 211.51 39.22 211.43 39.34 211.36 39.47 211.29 39.61 211.24 39.76 211.19 39.91 211.16 40.07 210.86 41.64" style="fill:none;stroke:#fff;stroke-miterlimit:2.6131;stroke-width:0.216px"/><polygon points="228.96 37.52 228.86 37.47 228.77 37.42 228.66 37.37 228.54 37.31 228.43 37.27 228.3 37.22 228.17 37.18 228.04 37.13 227.89 37.09 227.75 37.06 227.59 37.03 227.43 37.01 227.26 37 227.08 36.98 226.9 36.98 226.71 36.98 226.52 36.98 226.32 37 226.12 37.02 225.9 37.06 225.69 37.12 225.48 37.2 225.27 37.31 225.05 37.44 224.85 37.61 224.65 37.81 224.46 38.05 224.28 38.33 224.11 38.67 223.95 39.05 223.81 39.47 223.69 39.96 223.64 40.23 223.61 40.49 223.6 40.76 223.6 41.02 223.63 41.28 223.68 41.52 223.75 41.75 223.83 41.98 223.94 42.18 224.08 42.38 224.24 42.55 224.42 42.71 224.63 42.85 224.86 42.96 225.12 43.06 225.41 43.13 225.51 43.15 225.62 43.17 225.76 43.19 225.91 43.21 226.08 43.22 226.25 43.22 226.44 43.22 226.63 43.21 226.83 43.18 227.03 43.15 227.22 43.09 227.41 43.03 227.6 42.95 227.77 42.85 227.93 42.73 228.08 42.59 227.74 44.62 227.69 44.66 227.65 44.7 227.59 44.76 227.52 44.8 227.44 44.86 227.33 44.91 227.21 44.97 227.07 45.01 226.9 45.06 226.7 45.1 226.47 45.13 226.21 45.16 225.91 45.18 225.57 45.19 225.18 45.18 224.76 45.16 224.41 45.12 224.06 45.04 223.71 44.93 223.36 44.78 223.03 44.59 222.71 44.37 222.4 44.1 222.12 43.8 221.87 43.46 221.66 43.08 221.48 42.65 221.34 42.19 221.25 41.68 221.22 41.14 221.24 40.55 221.32 39.92 221.38 39.61 221.45 39.3 221.52 39.01 221.6 38.73 221.68 38.46 221.78 38.2 221.88 37.95 221.99 37.71 222.1 37.48 222.22 37.25 222.34 37.04 222.48 36.84 222.62 36.65 222.77 36.47 222.92 36.31 223.08 36.15 223.25 35.99 223.43 35.85 223.61 35.72 223.8 35.6 224.01 35.48 224.21 35.39 224.42 35.3 224.65 35.21 224.88 35.14 225.11 35.08 225.36 35.02 225.62 34.98 225.87 34.94 226.15 34.91 226.42 34.9 226.71 34.88 226.95 34.9 227.19 34.91 227.41 34.93 227.64 34.96 227.86 34.99 228.06 35.04 228.26 35.08 228.44 35.12 228.61 35.17 228.77 35.21 228.91 35.26 229.03 35.3 229.14 35.34 229.23 35.37 229.3 35.4 229.34 35.42 228.96 37.52 228.96 37.52 228.96 37.52" style="fill:#fff;fill-rule:evenodd"/><polyline points="228.96 37.52 228.96 37.52 228.86 37.47 228.77 37.42 228.66 37.37 228.54 37.31 228.43 37.27 228.3 37.22 228.17 37.18 228.04 37.13 227.89 37.09 227.75 37.06 227.59 37.03 227.43 37.01 227.26 37 227.08 36.98 226.9 36.98 226.71 36.98 226.71 36.98 226.52 36.98 226.32 37 226.12 37.02 225.9 37.06 225.69 37.12 225.48 37.2 225.27 37.31 225.05 37.44 224.85 37.61 224.65 37.81 224.46 38.05 224.28 38.33 224.11 38.67 223.95 39.05 223.81 39.47 223.69 39.96 223.69 39.96 223.64 40.23 223.61 40.49 223.6 40.76 223.6 41.02 223.63 41.28 223.68 41.52 223.75 41.75 223.83 41.98 223.94 42.18 224.08 42.38 224.24 42.55 224.42 42.71 224.63 42.85 224.86 42.96 225.12 43.06 225.41 43.13 225.41 43.13 225.51 43.15 225.62 43.17 225.76 43.19 225.91 43.21 226.08 43.22 226.25 43.22 226.44 43.22 226.63 43.21 226.83 43.18 227.03 43.15 227.22 43.09 227.41 43.03 227.6 42.95 227.77 42.85 227.93 42.73 228.08 42.59 227.74 44.62 227.74 44.62 227.69 44.66 227.65 44.7 227.59 44.76 227.52 44.8 227.44 44.86 227.33 44.91 227.21 44.97 227.07 45.01 226.9 45.06 226.7 45.1 226.47 45.13 226.21 45.16 225.91 45.18 225.57 45.19 225.18 45.18 224.76 45.16 224.76 45.16 224.41 45.12 224.06 45.04 223.71 44.93 223.36 44.78 223.03 44.59 222.71 44.37 222.4 44.1 222.12 43.8 221.87 43.46 221.66 43.08 221.48 42.65 221.34 42.19 221.25 41.68 221.22 41.14 221.24 40.55 221.32 39.92 221.32 39.92 221.38 39.61 221.45 39.3 221.52 39.01 221.6 38.73 221.68 38.46 221.78 38.2 221.88 37.95 221.99 37.71 222.1 37.48 222.22 37.25 222.34 37.04 222.48 36.84 222.62 36.65 222.77 36.47 222.92 36.31 223.08 36.15 223.25 35.99 223.43 35.85 223.61 35.72 223.8 35.6 224.01 35.48 224.21 35.39 224.42 35.3 224.65 35.21 224.88 35.14 225.11 35.08 225.36 35.02 225.62 34.98 225.87 34.94 226.15 34.91 226.42 34.9 226.71 34.88 226.71 34.88 226.95 34.9 227.19 34.91 227.41 34.93 227.64 34.96 227.86 34.99 228.06 35.04 228.26 35.08 228.44 35.12 228.61 35.17 228.77 35.21 228.91 35.26 229.03 35.3 229.14 35.34 229.23 35.37 229.3 35.4 229.34 35.42 228.96 37.52" style="fill:none;stroke:#fff;stroke-miterlimit:2.6131;stroke-width:0.216px"/><polygon points="247.65 45.19 245.55 45.19 245.7 44.35 245.7 44.27 245.58 44.43 245.45 44.56 245.32 44.69 245.19 44.79 245.05 44.89 244.91 44.97 244.77 45.04 244.63 45.11 244.49 45.16 244.34 45.2 244.2 45.24 244.04 45.26 243.89 45.28 243.75 45.3 243.6 45.31 243.44 45.31 243.05 45.28 242.69 45.19 242.35 45.06 242.05 44.89 241.78 44.67 241.53 44.41 241.32 44.13 241.14 43.81 240.99 43.47 240.87 43.12 240.78 42.74 240.72 42.35 240.7 41.97 240.71 41.57 240.74 41.19 240.81 40.8 240.93 40.35 241.06 39.93 241.22 39.54 241.41 39.17 241.61 38.83 241.84 38.53 242.07 38.26 242.32 38.01 242.59 37.78 242.87 37.6 243.16 37.43 243.44 37.3 243.75 37.19 244.05 37.13 244.36 37.08 244.67 37.06 244.89 37.07 245.1 37.09 245.3 37.13 245.48 37.19 245.65 37.25 245.81 37.31 245.96 37.4 246.1 37.48 246.22 37.57 246.33 37.67 246.43 37.77 246.52 37.87 246.6 37.97 246.67 38.07 246.72 38.16 246.77 38.25 246.77 38.25 247.3 35.27 249.37 35.27 247.65 45.19 247.65 45.19 247.65 45.19" style="fill:#fff;fill-rule:evenodd"/><polyline points="247.65 45.19 245.55 45.19 245.7 44.35 245.7 44.27 245.7 44.27 245.58 44.43 245.45 44.56 245.32 44.69 245.19 44.79 245.05 44.89 244.91 44.97 244.77 45.04 244.63 45.11 244.49 45.16 244.34 45.2 244.2 45.24 244.04 45.26 243.89 45.28 243.75 45.3 243.6 45.31 243.44 45.31 243.44 45.31 243.05 45.28 242.69 45.19 242.35 45.06 242.05 44.89 241.78 44.67 241.53 44.41 241.32 44.13 241.14 43.81 240.99 43.47 240.87 43.12 240.78 42.74 240.72 42.35 240.7 41.97 240.71 41.57 240.74 41.19 240.81 40.8 240.81 40.8 240.93 40.35 241.06 39.93 241.22 39.54 241.41 39.17 241.61 38.83 241.84 38.53 242.07 38.26 242.32 38.01 242.59 37.78 242.87 37.6 243.16 37.43 243.44 37.3 243.75 37.19 244.05 37.13 244.36 37.08 244.67 37.06 244.67 37.06 244.89 37.07 245.1 37.09 245.3 37.13 245.48 37.19 245.65 37.25 245.81 37.31 245.96 37.4 246.1 37.48 246.22 37.57 246.33 37.67 246.43 37.77 246.52 37.87 246.6 37.97 246.67 38.07 246.72 38.16 246.77 38.25 246.77 38.25 247.3 35.27 249.37 35.27 247.65 45.19" style="fill:none;stroke:#fff;stroke-miterlimit:2.6131;stroke-width:0.216px"/><polygon points="244.21 43.36 244.43 43.34 244.62 43.3 244.81 43.24 244.98 43.16 245.14 43.07 245.29 42.95 245.43 42.83 245.56 42.69 245.68 42.54 245.78 42.37 245.88 42.2 245.97 42.01 246.04 41.82 246.1 41.63 246.16 41.42 246.19 41.22 246.23 41.01 246.26 40.78 246.26 40.58 246.25 40.37 246.22 40.17 246.19 39.98 246.14 39.8 246.08 39.62 246 39.47 245.91 39.33 245.81 39.2 245.7 39.1 245.57 39.01 245.43 38.95 245.29 38.91 245.13 38.89 244.93 38.91 244.74 38.94 244.56 39 244.39 39.08 244.23 39.17 244.08 39.3 243.96 39.42 243.83 39.57 243.71 39.73 243.61 39.91 243.51 40.09 243.42 40.29 243.35 40.49 243.29 40.7 243.23 40.92 243.18 41.14 243.14 41.48 243.16 41.84 243.21 42.21 243.31 42.57 243.46 42.88 243.66 43.13 243.91 43.3 244.21 43.36 244.21 43.36 244.21 43.36" style="fill:#b3b3b3;fill-rule:evenodd"/><polygon points="197.6 43.51 197.29 45.19 195.38 45.19 195.43 44.88 195.47 44.6 195.5 44.39 195.53 44.27 195.43 44.4 195.31 44.52 195.16 44.63 195 44.74 194.82 44.84 194.63 44.94 194.43 45.03 194.23 45.1 194.01 45.17 193.79 45.23 193.57 45.27 193.34 45.3 193.12 45.32 192.9 45.32 192.69 45.3 192.48 45.27 192.22 45.2 191.97 45.13 191.76 45.03 191.57 44.91 191.4 44.79 191.25 44.66 191.13 44.51 191.02 44.36 190.93 44.2 190.86 44.03 190.8 43.87 190.75 43.7 190.72 43.52 190.7 43.35 190.68 43.18 190.68 43.02 190.71 42.72 190.75 42.44 190.83 42.17 190.93 41.91 191.05 41.67 191.18 41.45 191.34 41.24 191.53 41.05 191.72 40.88 191.93 40.72 192.15 40.57 192.38 40.45 192.62 40.34 192.87 40.26 193.13 40.19 193.39 40.15 193.41 40.15 193.44 40.14 193.5 40.13 193.58 40.12 193.67 40.11 193.78 40.1 193.89 40.09 194.02 40.07 194.15 40.06 194.28 40.04 194.42 40.03 194.54 40.02 194.66 40.01 194.77 40 194.88 39.99 194.96 39.99 195.14 39.99 195.32 40 195.49 40.01 195.65 40.01 195.79 40.02 195.9 40.02 195.97 40.03 196 40.03 196.01 39.98 196.06 39.84 196.1 39.68 196.11 39.54 196.08 39.37 196.01 39.22 195.92 39.08 195.8 38.97 195.65 38.87 195.5 38.8 195.31 38.76 195.12 38.74 194.9 38.73 194.67 38.73 194.44 38.73 194.2 38.73 193.95 38.75 193.7 38.77 193.46 38.8 193.22 38.83 193 38.86 192.78 38.89 192.58 38.93 192.4 38.97 192.23 39.02 192.1 39.06 191.99 39.11 191.9 39.16 192.44 37.33 192.61 37.26 192.78 37.2 192.96 37.15 193.14 37.11 193.32 37.07 193.52 37.04 193.72 37.01 193.92 37 194.14 36.98 194.36 36.97 194.58 36.97 194.82 36.97 195.06 36.97 195.31 36.97 195.58 36.97 195.84 36.98 196.06 37 196.28 37.03 196.52 37.09 196.76 37.16 197 37.25 197.23 37.35 197.45 37.48 197.67 37.63 197.86 37.79 198.02 37.98 198.18 38.18 198.29 38.41 198.37 38.65 198.41 38.91 198.41 39.2 198.37 39.5 197.6 43.51 197.6 43.51 197.6 43.51" style="fill:#fff;fill-rule:evenodd"/><polyline points="197.6 43.51 197.29 45.19 195.38 45.19 195.38 45.19 195.43 44.88 195.47 44.6 195.5 44.39 195.53 44.27 195.53 44.27 195.43 44.4 195.31 44.52 195.16 44.63 195 44.74 194.82 44.84 194.63 44.94 194.43 45.03 194.23 45.1 194.01 45.17 193.79 45.23 193.57 45.27 193.34 45.3 193.12 45.32 192.9 45.32 192.69 45.3 192.48 45.27 192.48 45.27 192.22 45.2 191.97 45.13 191.76 45.03 191.57 44.91 191.4 44.79 191.25 44.66 191.13 44.51 191.02 44.36 190.93 44.2 190.86 44.03 190.8 43.87 190.75 43.7 190.72 43.52 190.7 43.35 190.68 43.18 190.68 43.02 190.68 43.02 190.71 42.72 190.75 42.44 190.83 42.17 190.93 41.91 191.05 41.67 191.18 41.45 191.34 41.24 191.53 41.05 191.72 40.88 191.93 40.72 192.15 40.57 192.38 40.45 192.62 40.34 192.87 40.26 193.13 40.19 193.39 40.15 193.39 40.15 193.41 40.15 193.44 40.14 193.5 40.13 193.58 40.12 193.67 40.11 193.78 40.1 193.89 40.09 194.02 40.07 194.15 40.06 194.28 40.04 194.42 40.03 194.54 40.02 194.66 40.01 194.77 40 194.88 39.99 194.96 39.99 194.96 39.99 195.14 39.99 195.32 40 195.49 40.01 195.65 40.01 195.79 40.02 195.9 40.02 195.97 40.03 196 40.03 196 40.03 196.01 39.98 196.06 39.84 196.1 39.68 196.11 39.54 196.11 39.54 196.08 39.37 196.01 39.22 195.92 39.08 195.8 38.97 195.65 38.87 195.5 38.8 195.31 38.76 195.12 38.74 195.12 38.74 194.9 38.73 194.67 38.73 194.44 38.73 194.2 38.73 193.95 38.75 193.7 38.77 193.46 38.8 193.22 38.83 193 38.86 192.78 38.89 192.58 38.93 192.4 38.97 192.23 39.02 192.1 39.06 191.99 39.11 191.9 39.16 192.44 37.33 192.44 37.33 192.61 37.26 192.78 37.2 192.96 37.15 193.14 37.11 193.32 37.07 193.52 37.04 193.72 37.01 193.92 37 194.14 36.98 194.36 36.97 194.58 36.97 194.82 36.97 195.06 36.97 195.31 36.97 195.58 36.97 195.84 36.98 195.84 36.98 196.06 37 196.28 37.03 196.52 37.09 196.76 37.16 197 37.25 197.23 37.35 197.45 37.48 197.67 37.63 197.86 37.79 198.02 37.98 198.18 38.18 198.29 38.41 198.37 38.65 198.41 38.91 198.41 39.2 198.37 39.5 197.6 43.51" style="fill:none;stroke:#fff;stroke-miterlimit:2.6131;stroke-width:0.216px"/><polygon points="195.77 41.53 195.76 41.49 195.73 41.45 195.69 41.43 195.61 41.41 195.53 41.4 195.43 41.39 195.31 41.39 195.2 41.39 195.08 41.4 194.95 41.41 194.83 41.43 194.71 41.45 194.59 41.46 194.48 41.48 194.4 41.51 194.31 41.53 194.26 41.54 194.2 41.57 194.11 41.6 194.03 41.63 193.93 41.68 193.83 41.73 193.73 41.79 193.63 41.85 193.52 41.92 193.42 42 193.33 42.09 193.25 42.18 193.17 42.28 193.12 42.39 193.07 42.51 193.05 42.63 193.04 42.89 193.08 43.09 193.16 43.24 193.26 43.36 193.37 43.43 193.5 43.48 193.62 43.5 193.74 43.51 193.97 43.5 194.18 43.48 194.37 43.45 194.54 43.4 194.7 43.35 194.84 43.28 194.97 43.21 195.09 43.13 195.19 43.05 195.28 42.96 195.35 42.88 195.41 42.79 195.47 42.7 195.51 42.61 195.55 42.52 195.57 42.44 195.63 42.22 195.69 41.97 195.73 41.73 195.77 41.53 195.77 41.53 195.77 41.53" style="fill:#505050;fill-rule:evenodd"/><polygon points="181.63 45.19 179.56 45.19 181.28 35.23 184.88 35.23 185.22 41.14 187.7 35.23 191.45 35.23 189.69 45.19 187.62 45.19 188.93 37.75 188.85 37.75 185.76 45.19 183.43 45.19 183.41 44.88 183.36 44.05 183.29 42.88 183.21 41.53 183.14 40.17 183.07 38.98 183.02 38.11 183 37.75 182.98 37.75 182.93 37.75 182.89 37.75 182.89 37.75 181.63 45.19 181.63 45.19 181.63 45.19" style="fill:#fff;fill-rule:evenodd"/><polyline points="181.63 45.19 179.56 45.19 181.28 35.23 184.88 35.23 185.22 41.14 187.7 35.23 191.45 35.23 189.69 45.19 187.62 45.19 188.93 37.75 188.85 37.75 185.76 45.19 183.43 45.19 183.43 45.19 183.41 44.88 183.36 44.05 183.29 42.88 183.21 41.53 183.14 40.17 183.07 38.98 183.02 38.11 183 37.75 183 37.75 182.98 37.75 182.93 37.75 182.89 37.75 182.89 37.75 181.63 45.19" style="fill:none;stroke:#fff;stroke-miterlimit:2.6131;stroke-width:0.216px"/><polygon points="235.27 43.51 234.96 45.19 233.06 45.19 233.07 44.88 233.08 44.61 233.08 44.41 233.09 44.31 232.99 44.43 232.88 44.54 232.74 44.65 232.59 44.76 232.43 44.85 232.25 44.94 232.06 45.03 231.87 45.11 231.66 45.17 231.45 45.23 231.24 45.27 231.03 45.3 230.81 45.32 230.6 45.32 230.39 45.3 230.19 45.27 229.91 45.2 229.67 45.13 229.46 45.03 229.26 44.91 229.09 44.79 228.95 44.66 228.83 44.51 228.72 44.36 228.63 44.2 228.56 44.03 228.5 43.87 228.46 43.7 228.43 43.52 228.41 43.35 228.39 43.18 228.39 43.02 228.41 42.72 228.46 42.44 228.52 42.17 228.62 41.91 228.73 41.67 228.88 41.45 229.04 41.24 229.21 41.05 229.41 40.88 229.62 40.72 229.84 40.57 230.07 40.45 230.31 40.34 230.56 40.26 230.81 40.19 231.06 40.15 231.08 40.15 231.12 40.14 231.17 40.13 231.25 40.12 231.35 40.11 231.45 40.1 231.57 40.09 231.69 40.07 231.82 40.06 231.95 40.04 232.08 40.03 232.21 40.02 232.33 40.01 232.44 40 232.54 39.99 232.63 39.99 232.81 39.99 232.99 40 233.17 40.01 233.34 40.01 233.48 40.02 233.6 40.02 233.67 40.03 233.7 40.03 233.72 39.98 233.74 39.84 233.76 39.68 233.78 39.54 233.74 39.37 233.69 39.22 233.59 39.08 233.47 38.97 233.34 38.87 233.18 38.8 233.01 38.76 232.83 38.74 232.61 38.73 232.39 38.73 232.15 38.73 231.91 38.73 231.66 38.75 231.41 38.77 231.17 38.8 230.94 38.83 230.71 38.86 230.49 38.89 230.29 38.93 230.11 38.97 229.94 39.02 229.81 39.06 229.7 39.11 229.62 39.16 230.15 37.33 230.31 37.26 230.49 37.2 230.66 37.15 230.85 37.11 231.03 37.07 231.22 37.04 231.42 37.01 231.63 37 231.84 36.98 232.06 36.97 232.28 36.97 232.51 36.97 232.75 36.97 232.99 36.97 233.25 36.97 233.51 36.98 233.72 37 233.95 37.03 234.19 37.09 234.43 37.16 234.66 37.25 234.9 37.35 235.13 37.48 235.34 37.63 235.53 37.79 235.71 37.98 235.86 38.18 235.97 38.41 236.05 38.65 236.11 38.91 236.11 39.2 236.07 39.5 235.27 43.51 235.27 43.51 235.27 43.51" style="fill:#fff;fill-rule:evenodd"/><polygon points="234.96 45.25 235.01 45.2 235.32 43.52 235.22 43.5 234.91 45.19 234.96 45.14 234.96 45.25 235 45.24 235.01 45.2 234.96 45.25 234.96 45.25 234.96 45.25" style="fill:#fff;fill-rule:evenodd"/><polygon points="233.01 45.19 233.06 45.25 234.96 45.25 234.96 45.14 233.06 45.14 233.1 45.19 233.01 45.19 233 45.25 233.06 45.25 233.01 45.19 233.01 45.19 233.01 45.19" style="fill:#fff;fill-rule:evenodd"/><polygon points="233.13 44.34 233.06 44.28 233.03 44.41 233.02 44.61 233.02 44.88 233.01 45.19 233.1 45.19 233.12 44.88 233.13 44.61 233.12 44.41 233.12 44.34 233.06 44.28 233.13 44.34 233.13 44.34 233.13 44.34" style="fill:#fff;fill-rule:evenodd"/><polygon points="230.18 45.32 230.18 45.32 230.39 45.35 230.6 45.37 230.81 45.36 231.03 45.35 231.25 45.32 231.46 45.28 231.67 45.22 231.88 45.16 232.07 45.08 232.27 44.99 232.45 44.9 232.61 44.79 232.77 44.69 232.91 44.58 233.03 44.46 233.13 44.34 233.06 44.28 232.96 44.4 232.85 44.5 232.71 44.61 232.57 44.72 232.41 44.81 232.23 44.9 232.04 44.99 231.86 45.06 231.66 45.13 231.44 45.19 231.23 45.23 231.03 45.25 230.81 45.27 230.6 45.28 230.39 45.25 230.19 45.23 230.19 45.23 230.18 45.32 230.18 45.32 230.18 45.32" style="fill:#fff;fill-rule:evenodd"/><polygon points="228.34 43.02 228.34 43.02 228.35 43.18 228.36 43.35 228.38 43.53 228.42 43.71 228.46 43.87 228.52 44.05 228.58 44.22 228.68 44.38 228.79 44.54 228.91 44.69 229.06 44.83 229.24 44.95 229.43 45.07 229.65 45.17 229.9 45.25 230.18 45.32 230.19 45.23 229.92 45.16 229.69 45.08 229.48 44.98 229.28 44.88 229.12 44.76 228.98 44.63 228.86 44.48 228.76 44.34 228.68 44.18 228.61 44.02 228.54 43.86 228.51 43.69 228.48 43.52 228.46 43.35 228.44 43.18 228.45 43.02 228.45 43.02 228.34 43.02 228.34 43.02 228.34 43.02" style="fill:#fff;fill-rule:evenodd"/><polygon points="231.06 40.1 231.06 40.1 230.8 40.15 230.54 40.22 230.29 40.3 230.05 40.4 229.81 40.52 229.58 40.68 229.38 40.84 229.18 41.02 229 41.21 228.84 41.42 228.69 41.65 228.58 41.9 228.48 42.16 228.41 42.43 228.36 42.72 228.34 43.02 228.45 43.02 228.46 42.72 228.5 42.45 228.57 42.19 228.67 41.93 228.78 41.69 228.92 41.48 229.08 41.27 229.24 41.08 229.44 40.91 229.65 40.75 229.86 40.62 230.09 40.49 230.32 40.39 230.57 40.31 230.81 40.24 231.06 40.19 231.06 40.19 231.06 40.1 231.06 40.1 231.06 40.1" style="fill:#fff;fill-rule:evenodd"/><polygon points="232.63 39.94 232.63 39.94 232.54 39.94 232.44 39.96 232.33 39.97 232.21 39.97 232.08 39.99 231.95 39.99 231.82 40.01 231.69 40.02 231.57 40.04 231.45 40.06 231.35 40.06 231.25 40.08 231.17 40.09 231.11 40.09 231.08 40.1 231.06 40.1 231.06 40.19 231.08 40.19 231.13 40.18 231.17 40.18 231.25 40.17 231.35 40.15 231.45 40.15 231.57 40.13 231.69 40.12 231.82 40.1 231.95 40.09 232.08 40.08 232.21 40.06 232.33 40.06 232.44 40.05 232.54 40.05 232.63 40.05 232.63 40.05 232.63 39.94 232.63 39.94 232.63 39.94" style="fill:#fff;fill-rule:evenodd"/><polygon points="233.65 40.02 233.7 39.99 233.67 39.99 233.6 39.98 233.48 39.97 233.34 39.96 233.17 39.96 232.99 39.96 232.81 39.94 232.63 39.94 232.63 40.05 232.81 40.05 232.99 40.05 233.17 40.06 233.34 40.06 233.48 40.06 233.6 40.07 233.67 40.08 233.7 40.08 233.74 40.04 233.7 40.08 233.74 40.09 233.74 40.04 233.65 40.02 233.65 40.02 233.65 40.02" style="fill:#fff;fill-rule:evenodd"/><polygon points="233.73 39.54 233.72 39.54 233.72 39.68 233.69 39.84 233.67 39.97 233.65 40.02 233.74 40.04 233.76 39.99 233.78 39.85 233.81 39.68 233.83 39.54 233.82 39.54 233.73 39.54 233.73 39.54 233.73 39.54" style="fill:#fff;fill-rule:evenodd"/><polygon points="232.83 38.79 232.83 38.8 233 38.8 233.16 38.85 233.31 38.92 233.44 39.01 233.55 39.11 233.64 39.24 233.7 39.38 233.73 39.54 233.82 39.54 233.79 39.37 233.73 39.2 233.62 39.05 233.5 38.93 233.36 38.83 233.19 38.76 233.02 38.71 232.83 38.69 232.83 38.7 232.83 38.79 232.83 38.79 232.83 38.79" style="fill:#fff;fill-rule:evenodd"/><polygon points="229.57 39.15 229.65 39.2 229.72 39.16 229.82 39.11 229.95 39.06 230.12 39.02 230.3 38.98 230.5 38.94 230.72 38.9 230.94 38.87 231.17 38.84 231.41 38.82 231.66 38.8 231.91 38.78 232.15 38.78 232.39 38.78 232.61 38.78 232.83 38.79 232.83 38.7 232.61 38.69 232.39 38.67 232.15 38.67 231.91 38.69 231.66 38.7 231.41 38.73 231.17 38.75 230.94 38.78 230.7 38.81 230.48 38.85 230.28 38.89 230.1 38.92 229.94 38.97 229.79 39.02 229.68 39.07 229.58 39.12 229.66 39.17 229.57 39.15 229.57 39.15 229.57 39.15" style="fill:#fff;fill-rule:evenodd"/><polygon points="230.13 37.28 230.1 37.32 229.57 39.15 229.66 39.17 230.19 37.34 230.16 37.38 230.13 37.28 230.11 37.29 230.1 37.32 230.13 37.28 230.13 37.28 230.13 37.28" style="fill:#fff;fill-rule:evenodd"/><polygon points="233.51 36.94 233.51 36.94 233.25 36.92 232.99 36.91 232.75 36.91 232.51 36.91 232.28 36.91 232.06 36.93 231.84 36.94 231.63 36.95 231.42 36.97 231.22 37 231.03 37.03 230.84 37.06 230.65 37.1 230.47 37.16 230.3 37.22 230.13 37.28 230.16 37.38 230.33 37.31 230.5 37.25 230.67 37.19 230.85 37.16 231.04 37.12 231.23 37.09 231.42 37.06 231.63 37.04 231.84 37.03 232.06 37.02 232.28 37.02 232.51 37.02 232.75 37.02 232.99 37.02 233.25 37.03 233.51 37.03 233.51 37.03 233.51 36.94 233.51 36.94 233.51 36.94" style="fill:#fff;fill-rule:evenodd"/><polygon points="236.11 39.51 236.11 39.51 236.15 39.2 236.15 38.91 236.1 38.64 236.02 38.39 235.9 38.16 235.74 37.95 235.56 37.76 235.37 37.59 235.15 37.44 234.92 37.31 234.68 37.2 234.44 37.11 234.19 37.04 233.96 36.99 233.72 36.95 233.51 36.94 233.51 37.03 233.72 37.04 233.94 37.08 234.18 37.13 234.41 37.2 234.65 37.29 234.88 37.4 235.1 37.52 235.31 37.66 235.5 37.83 235.66 38.01 235.82 38.2 235.92 38.42 236.01 38.66 236.06 38.91 236.06 39.2 236.02 39.49 236.02 39.49 236.11 39.51 236.11 39.51 236.11 39.51" style="fill:#fff;fill-rule:evenodd"/><polygon points="235.32 43.52 235.32 43.52 236.11 39.51 236.02 39.49 235.22 43.5 235.22 43.5 235.32 43.52 235.32 43.52 235.32 43.52" style="fill:#fff;fill-rule:evenodd"/><polygon points="233.43 41.53 233.42 41.48 233.39 41.45 233.34 41.42 233.26 41.4 233.18 41.39 233.08 41.38 232.96 41.38 232.85 41.39 232.73 41.41 232.61 41.42 232.49 41.44 232.37 41.45 232.26 41.48 232.16 41.49 232.06 41.51 231.98 41.53 231.93 41.53 231.87 41.56 231.79 41.58 231.71 41.61 231.61 41.66 231.52 41.7 231.41 41.76 231.32 41.82 231.22 41.89 231.12 41.98 231.03 42.06 230.95 42.16 230.88 42.26 230.83 42.38 230.78 42.5 230.76 42.63 230.75 42.89 230.79 43.09 230.85 43.24 230.94 43.36 231.06 43.43 231.19 43.48 231.32 43.5 231.44 43.51 231.67 43.5 231.88 43.48 232.08 43.44 232.26 43.39 232.42 43.33 232.57 43.26 232.71 43.18 232.83 43.09 232.93 43.01 233.02 42.91 233.11 42.82 233.18 42.72 233.23 42.63 233.27 42.54 233.3 42.45 233.32 42.36 233.35 42.15 233.39 41.93 233.42 41.72 233.43 41.53 233.43 41.53 233.43 41.53" style="fill:#b3b3b3;fill-rule:evenodd"/><polygon points="249.07 44.16 249.09 43.98 249.15 43.77 249.25 43.59 249.38 43.43 249.54 43.3 249.72 43.21 249.92 43.15 250.13 43.13 250.35 43.15 250.54 43.21 250.73 43.3 250.88 43.43 251.01 43.59 251.12 43.77 251.18 43.98 251.2 44.16 250.97 44.16 250.96 44.02 250.92 43.85 250.84 43.7 250.74 43.57 250.62 43.46 250.48 43.39 250.31 43.34 250.13 43.32 249.96 43.34 249.79 43.39 249.65 43.46 249.53 43.57 249.43 43.7 249.35 43.85 249.31 44.02 249.29 44.16 249.07 44.16 249.07 44.16 249.07 44.16" style="fill:#fff;fill-rule:evenodd"/><polygon points="249.75 44.16 249.75 43.7 250.17 43.7 250.26 43.71 250.35 43.72 250.41 43.74 250.46 43.77 250.5 43.82 250.53 43.87 250.54 43.92 250.55 43.97 250.54 44.04 250.53 44.09 250.51 44.14 250.49 44.16 250.17 44.16 250.2 44.15 250.25 44.14 250.3 44.13 250.34 44.11 250.37 44.09 250.38 44.06 250.4 44.03 250.4 43.97 250.39 43.93 250.38 43.9 250.35 43.89 250.33 43.87 250.29 43.87 250.25 43.86 250.22 43.86 250.17 43.86 249.94 43.86 249.94 44.16 249.75 44.16 249.75 44.16 249.75 44.16" style="fill:#fff;fill-rule:evenodd"/><polygon points="249.07 44.16 249.06 44.2 249.09 44.42 249.15 44.63 249.25 44.81 249.38 44.96 249.54 45.09 249.72 45.19 249.92 45.25 250.13 45.27 250.35 45.25 250.54 45.19 250.73 45.09 250.88 44.96 251.01 44.81 251.12 44.63 251.18 44.42 251.21 44.2 251.2 44.16 250.97 44.16 250.98 44.2 250.96 44.38 250.92 44.55 250.84 44.69 250.74 44.82 250.62 44.93 250.48 45.01 250.31 45.06 250.13 45.08 249.96 45.06 249.79 45.01 249.65 44.93 249.53 44.82 249.43 44.69 249.35 44.55 249.31 44.38 249.29 44.2 249.29 44.16 249.07 44.16 249.07 44.16 249.07 44.16" style="fill:#fff;fill-rule:evenodd"/><polygon points="249.75 44.16 249.75 44.62 249.94 44.62 249.94 44.24 250.13 44.24 250.36 44.62 250.51 44.62 250.28 44.24 250.34 44.24 250.39 44.22 250.44 44.21 250.48 44.18 250.49 44.16 250.17 44.16 250.13 44.16 249.94 44.16 249.94 44.16 249.75 44.16 249.75 44.16 249.75 44.16" style="fill:#fff;fill-rule:evenodd"/><path d="M1152.21,1385.11h0l0-.22.06-.2.11-.18.12-.16.16-.13.18-.09.2-.06.21,0h0l.22,0,.19.06.19.09.16.13.13.16.1.18.06.2,0,.22h0l0,.22-.06.21-.1.18-.13.15-.16.13-.19.1-.19.06-.22,0h0l-.21,0-.2-.06-.18-.1-.16-.13-.12-.15-.11-.18-.06-.21,0-.22m.87.42h-.18v-.92h.51l.08,0,.06,0,0,0,0,0,0,0v.11h0v.12l0,0,0,0,0,0,0,0h-.1l.22.38h-.15l-.23-.38h-.19v.38m.19-.45h0l.07,0h.1l0,0,0,0,0,0v-.09h0v-.07l0,0h-.41v.31h.19m0,.91h.18l.17,0,.14-.09.12-.1.1-.13.08-.15,0-.16,0-.19h0l0-.18,0-.17-.08-.15-.1-.13-.12-.1-.14-.08-.17,0-.18,0h0l-.17,0-.17,0-.14.08-.12.1-.1.13-.08.15,0,.17,0,.18h0l0,.19,0,.16.08.15.1.13.12.1.14.09.17,0h.17" transform="translate(-903.14 -1340.91)" style="fill:none;stroke:#fff;stroke-miterlimit:2.6131;stroke-width:0.216px"/><polygon points="235.84 45.19 237.98 45.19 237.98 45.19 238.75 40.88 238.78 40.71 238.82 40.54 238.87 40.37 238.93 40.21 239.01 40.04 239.1 39.88 239.19 39.73 239.32 39.59 239.45 39.46 239.61 39.33 239.78 39.22 239.98 39.13 240.2 39.05 240.44 38.99 240.71 38.95 241 38.93 241.11 38.93 241.17 38.93 241.19 38.93 241.19 38.93 241.53 36.98 241.32 37 241.12 37.02 240.93 37.06 240.74 37.11 240.58 37.17 240.42 37.25 240.27 37.33 240.12 37.42 239.98 37.53 239.86 37.63 239.73 37.76 239.61 37.88 239.5 38.01 239.39 38.15 239.27 38.29 239.16 38.44 239.39 37.06 237.26 37.06 235.84 45.19 235.84 45.19 235.84 45.19 235.84 45.19" style="fill:#fff;fill-rule:evenodd"/><polyline points="235.84 45.19 237.98 45.19 237.98 45.19 238.75 40.88 238.75 40.88 238.78 40.71 238.82 40.54 238.87 40.37 238.93 40.21 239.01 40.04 239.1 39.88 239.19 39.73 239.32 39.59 239.45 39.46 239.61 39.33 239.78 39.22 239.98 39.13 240.2 39.05 240.44 38.99 240.71 38.95 241 38.93 241 38.93 241.11 38.93 241.17 38.93 241.19 38.93 241.19 38.93 241.53 36.98 241.53 36.98 241.32 37 241.12 37.02 240.93 37.06 240.74 37.11 240.58 37.17 240.42 37.25 240.27 37.33 240.12 37.42 239.98 37.53 239.86 37.63 239.73 37.76 239.61 37.88 239.5 38.01 239.39 38.15 239.27 38.29 239.16 38.44 239.39 37.06 237.26 37.06 235.84 45.19 235.84 45.19" style="fill:none;stroke:#fff;stroke-miterlimit:2.6131;stroke-width:0.216px"/><polygon points="215.74 45.19 217.88 45.19 217.92 45.19 218.65 40.88 218.68 40.71 218.72 40.55 218.75 40.39 218.81 40.24 218.87 40.09 218.94 39.94 219.03 39.8 219.14 39.68 219.26 39.56 219.4 39.45 219.56 39.36 219.75 39.27 219.96 39.2 220.19 39.15 220.45 39.11 220.75 39.08 220.77 39.08 220.8 39.09 220.84 39.1 220.88 39.1 220.92 39.11 220.95 39.11 220.97 39.12 220.98 39.12 220.99 39.09 221.01 39 221.04 38.86 221.08 38.7 221.13 38.5 221.18 38.29 221.25 38.07 221.32 37.86 221.38 37.72 221.46 37.57 221.53 37.43 221.61 37.3 221.68 37.19 221.73 37.09 221.77 37.04 221.78 37.02 221.77 37.02 221.74 37.01 221.71 37 221.65 37 221.6 37 221.54 36.99 221.49 36.98 221.43 36.98 221.2 37 220.99 37.02 220.79 37.06 220.61 37.1 220.43 37.16 220.27 37.24 220.13 37.31 219.99 37.41 219.86 37.51 219.74 37.62 219.63 37.73 219.51 37.86 219.4 37.99 219.29 38.14 219.18 38.29 219.06 38.44 219.34 37.06 217.16 37.06 215.74 45.19 215.74 45.19 215.74 45.19 215.74 45.19" style="fill:#fff;fill-rule:evenodd"/><polyline points="215.74 45.19 217.88 45.19 217.92 45.19 218.65 40.88 218.65 40.88 218.68 40.71 218.72 40.55 218.75 40.39 218.81 40.24 218.87 40.09 218.94 39.94 219.03 39.8 219.14 39.68 219.26 39.56 219.4 39.45 219.56 39.36 219.75 39.27 219.96 39.2 220.19 39.15 220.45 39.11 220.75 39.08 220.75 39.08 220.77 39.08 220.8 39.09 220.84 39.1 220.88 39.1 220.92 39.11 220.95 39.11 220.97 39.12 220.98 39.12 220.98 39.12 220.99 39.09 221.01 39 221.04 38.86 221.08 38.7 221.13 38.5 221.18 38.29 221.25 38.07 221.32 37.86 221.32 37.86 221.38 37.72 221.46 37.57 221.53 37.43 221.61 37.3 221.68 37.19 221.73 37.09 221.77 37.04 221.78 37.02 221.78 37.02 221.77 37.02 221.74 37.01 221.71 37 221.65 37 221.6 37 221.54 36.99 221.49 36.98 221.43 36.98 221.43 36.98 221.2 37 220.99 37.02 220.79 37.06 220.61 37.1 220.43 37.16 220.27 37.24 220.13 37.31 219.99 37.41 219.86 37.51 219.74 37.62 219.63 37.73 219.51 37.86 219.4 37.99 219.29 38.14 219.18 38.29 219.06 38.44 219.34 37.06 217.16 37.06 215.74 45.19 215.74 45.19" style="fill:none;stroke:#fff;stroke-miterlimit:2.6131;stroke-width:0.216px"/><polygon points="249.09 53.18 249.09 53.15 249.15 52.95 249.25 52.78 249.38 52.63 249.54 52.5 249.72 52.41 249.92 52.36 250.13 52.34 250.35 52.36 250.54 52.41 250.73 52.5 250.88 52.63 251.01 52.78 251.12 52.95 251.18 53.15 251.18 53.18 250.96 53.18 250.92 53.02 250.84 52.88 250.74 52.75 250.62 52.64 250.48 52.56 250.31 52.5 250.13 52.49 249.96 52.5 249.79 52.56 249.65 52.64 249.53 52.75 249.43 52.88 249.35 53.02 249.31 53.18 249.09 53.18 249.09 53.18 249.09 53.18" style="fill:#b3b3b3;fill-rule:evenodd"/><polygon points="249.75 53.18 249.75 52.91 250.17 52.91 250.26 52.91 250.35 52.93 250.41 52.94 250.46 52.97 250.5 53.01 250.53 53.06 250.54 53.11 250.55 53.18 250.4 53.18 250.4 53.14 250.39 53.1 250.38 53.07 250.35 53.06 250.33 53.04 250.29 53.03 250.25 53.03 250.22 53.03 250.17 53.03 249.94 53.03 249.94 53.18 249.75 53.18 249.75 53.18 249.75 53.18" style="fill:#b3b3b3;fill-rule:evenodd"/><polygon points="249.06 53.35 249.09 53.18 249.31 53.18 249.31 53.19 249.29 53.35 249.06 53.35 249.06 53.35 249.06 53.35" style="fill:#b3b3b3;fill-rule:evenodd"/><polygon points="249.75 53.35 249.75 53.18 249.94 53.18 249.94 53.33 250.13 53.33 250.2 53.32 250.25 53.31 250.3 53.29 250.34 53.28 250.37 53.26 250.38 53.23 250.4 53.2 250.4 53.18 250.55 53.18 250.55 53.18 250.54 53.23 250.53 53.28 250.51 53.32 250.48 53.35 249.75 53.35 249.75 53.35 249.75 53.35" style="fill:#b3b3b3;fill-rule:evenodd"/><polygon points="250.98 53.35 250.96 53.19 250.96 53.18 251.18 53.18 251.21 53.35 250.98 53.35 250.98 53.35 250.98 53.35" style="fill:#b3b3b3;fill-rule:evenodd"/><polygon points="249.06 53.35 249.06 53.37 249.09 53.59 249.15 53.79 249.25 53.98 249.38 54.14 249.54 54.27 249.72 54.36 249.92 54.42 250.13 54.44 250.35 54.42 250.54 54.36 250.73 54.27 250.88 54.14 251.01 53.98 251.12 53.79 251.18 53.59 251.21 53.37 251.21 53.35 250.98 53.35 250.98 53.37 250.96 53.55 250.92 53.72 250.84 53.86 250.74 53.99 250.62 54.1 250.48 54.18 250.31 54.23 250.13 54.25 249.96 54.23 249.79 54.18 249.65 54.1 249.53 53.99 249.43 53.86 249.35 53.72 249.31 53.55 249.29 53.37 249.29 53.35 249.06 53.35 249.06 53.35 249.06 53.35" style="fill:#b3b3b3;fill-rule:evenodd"/><polygon points="249.75 53.35 249.75 53.79 249.94 53.79 249.94 53.41 250.13 53.41 250.36 53.79 250.51 53.79 250.28 53.41 250.34 53.41 250.39 53.39 250.44 53.38 250.48 53.35 250.48 53.35 249.75 53.35 249.75 53.35 249.75 53.35" style="fill:#b3b3b3;fill-rule:evenodd"/><path d="M1119.12,1380.4l-.06-.45-.11-.41-.15-.35-.19-.3-.23-.26-.25-.21-.27-.18-.3-.14-.3-.11-.32-.08-.3-.05-.32,0H1116l-.62,0-.54.09-.5.14-.44.19-.38.23-.33.25-.3.29-.24.31-.21.31-.18.34-.13.33-.12.32-.08.32-.06.3-.05.28,0,.24,0,.62,0,.56.08.51.13.45.18.4.22.35.26.31.3.26.31.22.35.19.35.15.37.11.38.09.38,0,.38,0h1.44l.16,0h.15l.14,0,.12,0,.13,0,.12,0,.11,0,.12-.05.12,0,.12-.07.12-.06.31-1.86-.23.13-.21.12-.22.09-.21.08-.21.07-.21,0-.21,0-.2,0-.2,0h-.6l-.2,0-.2,0-.19,0-.2,0-.15,0-.15-.06-.15-.06-.14-.09-.13-.09-.13-.11-.11-.12-.11-.13-.09-.12-.08-.15-.06-.14-.06-.14,0-.14v-.38h4.93l0-.46.11-.64,0-.57Zm-2.06.7h-2.78l0-.11,0-.15.05-.16,0-.15.07-.13.07-.13.08-.13.09-.11.1-.11.1-.09.12-.08.11-.07.13-.06.13,0,.13,0,.13,0h.15l.13,0,.13,0,.13,0,.11,0,.12.06.11.07.1.07.09.09.08.11.07.11.06.13,0,.15,0,.15,0,.17v.37Z" transform="translate(-903.14 -1340.91)" style="fill:#fff;fill-rule:evenodd"/><rect x="305.24" width="125.43" height="78.39" rx="4.18" style="fill:#ebebeb"/><path d="M1242.86,1419.31h86.77a4.18,4.18,0,0,0,4.18-4.18v-29.36C1325.48,1391.05,1294.08,1409.25,1242.86,1419.31Z" transform="translate(-903.14 -1340.91)" style="fill:#4f4f4f"/><path d="M1272.63,1374a6.15,6.15,0,0,0-6.26,6,6.25,6.25,0,1,0,6.26-6Z" transform="translate(-903.14 -1340.91)" style="fill:url(#a)"/><path d="M1237.09,1374.23h-3.36V1386h3.35a6.11,6.11,0,0,0,4.18-1.35,5.89,5.89,0,0,0,2.13-4.51C1243.39,1376.64,1240.8,1374.23,1237.09,1374.23Zm2.68,8.81a4.37,4.37,0,0,1-3.14.94H1236v-7.77h.61a4.29,4.29,0,0,1,3.14,1,4,4,0,0,1,1.26,2.92A4,4,0,0,1,1239.77,1383Z" transform="translate(-903.14 -1340.91)" style="fill:#333"/><rect x="341.31" y="33.31" width="2.29" height="11.74" style="fill:#333"/><path d="M1252.33,1378.73c-1.37-.51-1.77-.85-1.77-1.48s.72-1.3,1.7-1.3a2.37,2.37,0,0,1,1.85,1l1.2-1.57a5.17,5.17,0,0,0-3.45-1.3,3.44,3.44,0,0,0-3.66,3.36c0,1.62.74,2.45,2.88,3.22a9.61,9.61,0,0,1,1.59.67,1.42,1.42,0,0,1,.69,1.21,1.67,1.67,0,0,1-1.78,1.66,2.69,2.69,0,0,1-2.5-1.57l-1.48,1.43a4.56,4.56,0,0,0,4.07,2.24,3.79,3.79,0,0,0,4-3.86C1255.71,1380.53,1254.94,1379.68,1252.33,1378.73Z" transform="translate(-903.14 -1340.91)" style="fill:#333"/><path d="M1256.43,1380.1a6.08,6.08,0,0,0,6.2,6.13,6.33,6.33,0,0,0,2.87-.69v-2.69a3.69,3.69,0,0,1-2.76,1.28,3.84,3.84,0,0,1-4-4.05,3.9,3.9,0,0,1,3.84-4,3.84,3.84,0,0,1,2.87,1.32v-2.69a5.83,5.83,0,0,0-2.82-.72A6.17,6.17,0,0,0,1256.43,1380.1Z" transform="translate(-903.14 -1340.91)" style="fill:#333"/><polygon points="380.91 41.2 377.78 33.31 375.27 33.31 380.26 45.35 381.49 45.35 386.56 33.31 384.08 33.31 380.91 41.2" style="fill:#333"/><polygon points="387.6 45.05 394.09 45.05 394.09 43.06 389.89 43.06 389.89 39.89 393.93 39.89 393.93 37.9 389.89 37.9 389.89 35.3 394.09 35.3 394.09 33.31 387.6 33.31 387.6 45.05" style="fill:#333"/><path d="M1306.3,1377.69c0-2.2-1.52-3.46-4.16-3.46h-3.39V1386H1301v-4.71h.3l3.16,4.71h2.82l-3.7-4.94A3.12,3.12,0,0,0,1306.3,1377.69Zm-4.6,1.94H1301v-3.56h.7c1.43,0,2.2.6,2.2,1.74S1303.17,1379.63,1301.7,1379.63Z" transform="translate(-903.14 -1340.91)" style="fill:#333"/><path d="M1307.91,1375.1c0-.2-.14-.32-.39-.32h-.33v1h.25v-.41l.28.41h.31l-.34-.43A.29.29,0,0,0,1307.91,1375.1Zm-.43.14h0V1375h0c.13,0,.19,0,.19.13S1307.6,1375.24,1307.48,1375.24Z" transform="translate(-903.14 -1340.91)" style="fill:#333"/><path d="M1307.57,1374.39a.91.91,0,1,0,.89.91A.9.9,0,0,0,1307.57,1374.39Zm0,1.65a.74.74,0,1,1,.71-.74A.73.73,0,0,1,1307.57,1376Z" transform="translate(-903.14 -1340.91)" style="fill:#333"/></svg>