<svg xmlns="http://www.w3.org/2000/svg" viewBox="0 0 53.11 63.64"><defs><style>.cls-1{fill:#fff;}</style></defs><title>cookies-icon</title><g id="Layer_2" data-name="Layer 2"><g id="Layer_1-2" data-name="Layer 1"><path class="cls-1" d="M36.48,24a1.7,1.7,0,0,0-1.87.56L24.36,34.82a2.39,2.39,0,0,0-.25.32l-.82,1.09-.7-1.11a1.84,1.84,0,0,0-.19-.28l-.18-.19c-1.29-1.3-2.58-2.6-3.89-3.88A1.86,1.86,0,0,0,17,30.19h-.1a1.61,1.61,0,0,0-1.15.65,1.68,1.68,0,0,0,.28,2.29q2.23,2.25,4.49,4.49l1.28,1.29c1.16,1.15,1.91,1.15,3.06,0L36.73,27.08a4.07,4.07,0,0,0,.55-.63,1.57,1.57,0,0,0,.2-1.44A1.6,1.6,0,0,0,36.48,24Zm16.57-9.11,0-3.59a1.72,1.72,0,0,0-1.86-1.89L50,9.36c-1.56-.08-3.17-.16-4.75-.35A30.06,30.06,0,0,1,33.63,5.06,33.08,33.08,0,0,1,27.74.56a1.63,1.63,0,0,0-2.47,0l-1,.9A30.47,30.47,0,0,1,6.59,9.15c-1.17.12-2.33.16-3.5.21l-1.28.06A1.68,1.68,0,0,0,0,11.23v4.06c0,3.94,0,8,0,12a49.5,49.5,0,0,0,1.49,11A33.07,33.07,0,0,0,19.79,60.93c1.42.7,2.94,1.32,4.4,1.91l1.94.8h.74l.21-.09a47.39,47.39,0,0,0,10.05-4.82,32.46,32.46,0,0,0,13.73-18.2A56.26,56.26,0,0,0,53.1,24.1C53.13,21,53.09,18,53.05,14.89Zm-3.24,1.5c0,1.18,0,2.35,0,3.53,0,2.67,0,5.43-.13,8.15a41.15,41.15,0,0,1-3.31,15.29A29.14,29.14,0,0,1,35.82,55.68,41.65,41.65,0,0,1,27.11,60a1.64,1.64,0,0,1-.62.12,1.18,1.18,0,0,1-.41-.07,37.93,37.93,0,0,1-12.42-7.15A29.16,29.16,0,0,1,5,38.67,45.86,45.86,0,0,1,3.31,27.4c-.06-3.14-.05-6.28,0-9.41,0-1.35,0-2.69,0-4,0-.12,0-.25,0-.41l0-.87.59,0c8.87-.34,16.12-3.09,22.16-8.4l.43-.37.42.37c6,5.31,13.31,8.06,22.26,8.4l.62,0v3.72Z"/></g></g></svg>