<?xml version="1.0" encoding="utf-8"?>
<svg version="1.1" id="Layer_1" xmlns="http://www.w3.org/2000/svg" xmlns:xlink="http://www.w3.org/1999/xlink" x="0px" y="0px" viewBox="0 0 63.2 55" style="enable-background:new 0 0 63.2 55;" xml:space="preserve">
	<path class="st0" d="M61.8,49.1c-3.3-2.5-5-3.8-6.7-5.1s-3.4-2.6-6.8-5.2c-0.5-0.4-1-0.7-1.5-1.1c3.4-5.9,4.3-12.2,2.8-18.4c-1.6-6.6-6-12.4-11.9-15.8C26.6-3,12.9-0.2,5.2,10.1C-2.7,20.6-1.5,34.6,8,43.5c5,4.6,11.6,7.1,18.3,6.9c6.3-0.2,12.1-2.9,16.8-7.6c2.4,1.8,3.5,2.6,4.5,3.4c1.1,0.9,2.2,1.7,5,3.8l5.6,4.3c0.6,0.5,1.3,0.7,1.9,0.7c0.5,0,1-0.1,1.4-0.4c1.1-0.5,1.7-1.5,1.7-2.8C63.3,50.4,62.5,49.6,61.8,49.1 M40.2,36.8c-3.1,4-7.7,6.6-12.9,7.2C16.9,45.3,7.8,38.1,6.4,27.8C5,17.2,12.1,7.8,22.6,6.4C33.3,5,42.4,12,43.9,22.7C44.6,27.8,43.3,32.8,40.2,36.8"/>
</svg>