<svg xmlns="http://www.w3.org/2000/svg" viewBox="0 0 36.04 65.85"><path d="M713.87,270.24a19.36,19.36,0,0,1-3.68-1.62,7.67,7.67,0,0,1-3.37-6.6q0-24.78,0-49.55a8,8,0,0,1,8.13-8q9.85-.12,19.73,0a8,8,0,0,1,8.16,8.3q0,24.63,0,49.26a7.94,7.94,0,0,1-6.53,8,2.19,2.19,0,0,0-.51.25ZM739.55,257V217.66H710.13V257Zm-29.38,3.31c-.57,4.3,1.47,6.67,5.61,6.67,6.23,0,12.46,0,18.69,0,3.66,0,5.9-3.05,4.95-6.67Zm29.34-46c.6-4.26-1.46-6.67-5.6-6.67H715.36c-3.8,0-6,2.93-5.1,6.67Z" transform="translate(-706.82 -204.39)"/><path d="M724.53,265.49c-.43-.59-1.11-1.14-1.22-1.79-.17-1,.57-1.63,1.59-1.61a1.36,1.36,0,0,1,1.48,1.58c-.12.65-.77,1.21-1.19,1.81Z" transform="translate(-706.82 -204.39)"/><path d="M724.65,212.58c-.53,0-1.18.19-1.57-.05-.59-.34-1.36-1-1.37-1.51a2.06,2.06,0,0,1,1.29-1.54,9.33,9.33,0,0,1,3.61,0A2.25,2.25,0,0,1,728,211c.2.9-.48,1.53-1.45,1.6C725.92,212.62,725.29,212.58,724.65,212.58Z" transform="translate(-706.82 -204.39)"/></svg>