<svg xmlns="http://www.w3.org/2000/svg" width="28" height="28" viewBox="0 0 28 28">
  <title>Play Icon</title>
  <path d="M27.24,9.51A13.73,13.73,0,0,0,15.57.1c-.13,0-.25-.07-.37-.1H12.8A26.17,26.17,0,0,0,9.46.78,13.76,13.76,0,0,0,.1,12.38c0,.14-.07.28-.1.42v2.4a27.42,27.42,0,0,0,.76,3.28,13.75,13.75,0,0,0,11.67,9.43,2.22,2.22,0,0,1,.37.09h2.4a26.17,26.17,0,0,0,3.34-.78,13.76,13.76,0,0,0,9.36-11.6c0-.14.07-.28.1-.42V12.8a27.58,27.58,0,0,0-.76-3.29M14,26.82A12.83,12.83,0,1,1,26.82,14,12.81,12.81,0,0,1,14,26.82m5.36-13.45q-3.87-2.56-7.75-5.1a.94.94,0,0,0-.78-.13,1,1,0,0,0-.31.74c0,1.69,0,3.38,0,5.08s0,3.42,0,5.13c0,.27.13.67.33.77a1,1,0,0,0,.82-.17c2.56-1.67,5.11-3.36,7.66-5,.68-.45.7-.84,0-1.28M11.7,18.29V9.72L18.19,14,11.7,18.29" />
</svg>