<svg xmlns="http://www.w3.org/2000/svg" viewBox="0 0 54.21 54.23"><path d="M1383.7,271.61c-1-.21-2-.39-3-.63a27.17,27.17,0,0,1-20-19.74,26.84,26.84,0,0,1,19-32.39c1.66-.44,3.41-.59,5.12-.88a4.59,4.59,0,0,0,.51-.1h2.94c.81.1,1.62.18,2.43.3A26.06,26.06,0,0,1,1402.5,223a26.53,26.53,0,0,1,10.33,15.29,26,26,0,0,1,.7,8.35,26.88,26.88,0,0,1-19.31,23.92c-1.32.39-2.67.71-4,1.06Zm20.59-9.52a24.69,24.69,0,1,0-35.12,0,.59.59,0,0,0,.14-.06,31.23,31.23,0,0,1,6-2.94,37.3,37.3,0,0,0,4-2,2.4,2.4,0,0,0,1.11-1.42,20.6,20.6,0,0,0,.14-3.34.8.8,0,0,0-.18-.47,11.19,11.19,0,0,1-2.12-4.37.86.86,0,0,0-.25-.48,4,4,0,0,1-1.58-2.44,4.27,4.27,0,0,1,.36-3.76.6.6,0,0,0,0-.42,19.33,19.33,0,0,1-.33-8.59,8.25,8.25,0,0,1,5.88-6.39,14.16,14.16,0,0,1,5.67-.59,6.11,6.11,0,0,1,4,1.69,1.19,1.19,0,0,0,.52.28,6.37,6.37,0,0,1,2.93,1.63,7.8,7.8,0,0,1,2.08,5.26,20.08,20.08,0,0,1-.82,6.71.65.65,0,0,0,0,.48,3.84,3.84,0,0,1,.46,3.16,4.31,4.31,0,0,1-1.73,3,.78.78,0,0,0-.23.44,11.44,11.44,0,0,1-2,4.36,1,1,0,0,0-.19.51c0,.91,0,1.82,0,2.73a2,2,0,0,0,.85,1.76,16.9,16.9,0,0,0,2.27,1.37C1398.88,259.47,1401.84,260.27,1404.29,262.09Zm-25.14-20.58c-.72.59-.9.82-.84,1.4a11.45,11.45,0,0,0,.36,1.62.93.93,0,0,0,.95.74c.34,0,.47.2.52.53a8.89,8.89,0,0,0,.33,1.63,6.36,6.36,0,0,0,2,3.45.67.67,0,0,1,.14.46c0,1.28,0,2.55,0,3.83a4.7,4.7,0,0,1-.3,1.57,5,5,0,0,1-2.48,2.58c-1.94.94-3.94,1.75-5.89,2.64-1,.47-2.08,1-3.17,1.53,9.29,8,22.21,7.89,31.84,0-.5-.28-1-.61-1.46-.83-1.72-.76-3.45-1.49-5.17-2.21a11.45,11.45,0,0,1-3.78-2.27,3.52,3.52,0,0,1-1.26-2.17c-.11-1.34-.08-2.69-.12-4,0-.62,0-1.17.64-1.52.18-.09.29-.34.42-.53a9.52,9.52,0,0,0,1.44-4.09c.05-.4.21-.54.6-.63a1.19,1.19,0,0,0,.76-.52,5.06,5.06,0,0,0,.42-2c0-.49-.51-.95-.79-1.43-.12,0-.1-.06-.08-.13a19,19,0,0,0,1.09-7.95c-.29-2.36-1.4-4.15-4-4.45a1,1,0,0,1-.6-.35,3.07,3.07,0,0,0-2.11-1.31,11.34,11.34,0,0,0-5.72.37,6.06,6.06,0,0,0-3,2,8.54,8.54,0,0,0-1.59,6.23C1378.45,237.61,1378.85,239.5,1379.15,241.51Z" transform="translate(-1359.64 -217.62)" /></svg>